<svg width="28" height="28" viewBox="0 0 28 28" fill="none" xmlns="http://www.w3.org/2000/svg">
<path d="M20 15.5C20.8804 15.5 21.7415 15.7583 22.4766 16.2428C23.2117 16.7274 23.7885 17.4169 24.1356 18.2261C24.4827 19.0352 24.5848 19.9284 24.4292 20.795C24.2737 21.6616 23.8674 22.4635 23.2606 23.1014C22.6538 23.7393 21.8732 24.1853 21.0154 24.3839C20.1577 24.5826 19.2605 24.5253 18.4351 24.2191C17.6096 23.9129 16.8921 23.3713 16.3714 22.6614C15.8507 21.9514 15.5496 21.1043 15.5056 20.225L15.5 20L15.5056 19.775C15.5634 18.6219 16.0621 17.5351 16.8986 16.7394C17.7351 15.9437 18.8455 15.5 20 15.5Z" fill="white"/>
<path d="M11.375 12.5H4.625C4.32663 12.5 4.04048 12.3815 3.8295 12.1705C3.61853 11.9595 3.5 11.6734 3.5 11.375V4.625C3.5 4.32663 3.61853 4.04048 3.8295 3.82951C4.04048 3.61853 4.32663 3.5 4.625 3.5H11.375C11.6734 3.5 11.9595 3.61853 12.1705 3.82951C12.3815 4.04048 12.5 4.32663 12.5 4.625V11.375C12.5 11.6734 12.3815 11.9595 12.1705 12.1705C11.9595 12.3815 11.6734 12.5 11.375 12.5Z" fill="white"/>
<path d="M11.375 24.5H4.625C4.32663 24.5 4.04048 24.3815 3.8295 24.1705C3.61853 23.9595 3.5 23.6734 3.5 23.375V16.625C3.5 16.3266 3.61853 16.0405 3.8295 15.8295C4.04048 15.6185 4.32663 15.5 4.625 15.5H11.375C11.6734 15.5 11.9595 15.6185 12.1705 15.8295C12.3815 16.0405 12.5 16.3266 12.5 16.625V23.375C12.5 23.6734 12.3815 23.9595 12.1705 24.1705C11.9595 24.3815 11.6734 24.5 11.375 24.5Z" fill="white"/>
<path d="M23.375 12.5H16.625C16.3266 12.5 16.0405 12.3815 15.8295 12.1705C15.6185 11.9595 15.5 11.6734 15.5 11.375V4.625C15.5 4.32663 15.6185 4.04048 15.8295 3.82951C16.0405 3.61853 16.3266 3.5 16.625 3.5H23.375C23.6734 3.5 23.9595 3.61853 24.1705 3.82951C24.3815 4.04048 24.5 4.32663 24.5 4.625V11.375C24.5 11.6734 24.3815 11.9595 24.1705 12.1705C23.9595 12.3815 23.6734 12.5 23.375 12.5Z" fill="white"/>
</svg>

