<svg width="24" height="24" viewBox="0 0 24 24" fill="none" xmlns="http://www.w3.org/2000/svg">
<path d="M15.001 7V6C15.001 5.20435 14.6849 4.44129 14.1223 3.87868C13.5597 3.31607 12.7966 3 12.001 3C11.2053 3 10.4423 3.31607 9.87966 3.87868C9.31705 4.44129 9.00098 5.20435 9.00098 6V7M8.00098 8H6.33227C6.0439 7.99997 5.75894 8.06229 5.49691 8.1827C5.23489 8.30311 5.002 8.47876 4.81422 8.6976C4.62643 8.91645 4.48819 9.17331 4.40898 9.45059C4.32976 9.72786 4.31144 10.019 4.35527 10.304L5.61027 18.456C5.71919 19.1643 6.07805 19.8102 6.6219 20.2768C7.16575 20.7434 7.85867 21 8.57527 21H15.4273C16.144 21.0002 16.8372 20.7438 17.3813 20.2771C17.9253 19.8105 18.2843 19.1644 18.3933 18.456L19.6483 10.304C19.6921 10.019 19.6738 9.72786 19.5946 9.45059C19.5153 9.17331 19.3771 8.91645 19.1893 8.6976C19.0015 8.47876 18.7687 8.30311 18.5066 8.1827C18.2446 8.06229 17.9596 7.99997 17.6713 8H16.001M10.001 8H14.001" stroke="white" stroke-linecap="square" stroke-linejoin="round"/>
<path d="M4.80078 10C4.80078 9.29297 5.00098 8.5 6.00098 8.5C7.00098 8.5 8.50098 8.5 8.50098 8.5V11C8.50098 11 8.50098 11.5 9.00098 11.5C9.50098 11.5 9.50098 11 9.50098 11L9.50098 8.5H14.501V11C14.501 11 14.501 11.5 15.001 11.5C15.501 11.5 15.501 11 15.501 11V8.5C15.501 8.5 17.001 8.5 18.001 8.5C19.001 8.5 19.2008 9.17578 19.2008 10C19.2008 10.6235 18.001 18 18.001 18C18.004 18.7692 17.1839 19.943 17.0008 20C16.4647 20.3172 16.1402 20.4331 15.501 20.5H8.50098C7.81743 20.4259 7.49929 20.2971 7.00078 20C6.92258 20.0014 6.15959 19.178 6.00098 18C6.00098 18 4.80078 10.4965 4.80078 10Z" fill="white"/>
</svg>
