<svg width="157" height="27" viewBox="0 0 157 27" fill="none" xmlns="http://www.w3.org/2000/svg">
<path d="M51.8277 22.26L58.3077 3.132H64.5957L71.0757 22.26H66.0837L64.2597 16.908L58.0677 18.612L56.8197 22.26H51.8277ZM59.6037 14.076L62.9637 13.14L61.4517 8.652L59.6037 14.076ZM82.3442 18.612C83.6242 18.612 84.6722 18.316 85.4882 17.724C86.3042 17.132 86.7922 16.292 86.9522 15.204H81.8882V11.076H91.9682V13.74C91.9682 15.212 91.7122 16.508 91.2002 17.628C90.7042 18.748 90.0162 19.684 89.1362 20.436C88.2722 21.188 87.2562 21.756 86.0882 22.14C84.9202 22.54 83.6802 22.74 82.3682 22.74C80.9122 22.74 79.5522 22.492 78.2882 21.996C77.0402 21.5 75.9522 20.804 75.0242 19.908C74.0962 19.028 73.3602 17.972 72.8162 16.74C72.2882 15.508 72.0242 14.156 72.0242 12.684C72.0242 11.212 72.2882 9.86 72.8162 8.628C73.3602 7.396 74.0962 6.34 75.0242 5.46C75.9682 4.564 77.0802 3.868 78.3602 3.372C79.6402 2.876 81.0162 2.628 82.4882 2.628C84.4722 2.628 86.1842 3.036 87.6242 3.852C89.0642 4.652 90.3602 5.844 91.5122 7.428L88.2242 10.188C87.6322 9.132 86.8482 8.292 85.8722 7.668C84.9122 7.044 83.7602 6.732 82.4162 6.732C81.6962 6.732 81.0082 6.876 80.3522 7.164C79.6962 7.452 79.1202 7.86 78.6242 8.388C78.1442 8.9 77.7522 9.524 77.4482 10.26C77.1602 10.98 77.0162 11.788 77.0162 12.684C77.0162 13.58 77.1522 14.396 77.4242 15.132C77.6962 15.852 78.0722 16.476 78.5522 17.004C79.0322 17.516 79.5922 17.916 80.2322 18.204C80.8882 18.476 81.5922 18.612 82.3442 18.612ZM94.3602 12.66C94.3602 11.204 94.6242 9.86 95.1522 8.628C95.6962 7.396 96.4322 6.34 97.3602 5.46C98.3042 4.564 99.4162 3.868 100.696 3.372C101.976 2.876 103.368 2.628 104.872 2.628C106.392 2.628 107.792 2.876 109.072 3.372C110.352 3.868 111.456 4.564 112.384 5.46C113.328 6.34 114.056 7.396 114.568 8.628C115.096 9.86 115.36 11.204 115.36 12.66C115.36 14.132 115.096 15.484 114.568 16.716C114.056 17.948 113.328 19.012 112.384 19.908C111.456 20.804 110.352 21.5 109.072 21.996C107.792 22.492 106.392 22.74 104.872 22.74C103.368 22.74 101.976 22.492 100.696 21.996C99.4162 21.5 98.3042 20.804 97.3602 19.908C96.4322 19.012 95.6962 17.948 95.1522 16.716C94.6242 15.484 94.3602 14.132 94.3602 12.66ZM99.3522 12.66C99.3522 13.54 99.4802 14.348 99.7362 15.084C100.008 15.804 100.384 16.428 100.864 16.956C101.344 17.484 101.92 17.9 102.592 18.204C103.28 18.492 104.04 18.636 104.872 18.636C105.704 18.636 106.456 18.492 107.128 18.204C107.816 17.9 108.4 17.484 108.88 16.956C109.36 16.428 109.728 15.804 109.984 15.084C110.256 14.348 110.392 13.54 110.392 12.66C110.392 11.812 110.256 11.028 109.984 10.308C109.728 9.588 109.36 8.964 108.88 8.436C108.4 7.908 107.816 7.5 107.128 7.212C106.456 6.908 105.704 6.756 104.872 6.756C104.04 6.756 103.28 6.908 102.592 7.212C101.92 7.5 101.344 7.908 100.864 8.436C100.384 8.964 100.008 9.588 99.7362 10.308C99.4802 11.028 99.3522 11.812 99.3522 12.66ZM118.231 3.132H128.959C129.791 3.132 130.567 3.244 131.287 3.468C132.023 3.692 132.655 4.036 133.183 4.5C133.711 4.948 134.127 5.532 134.431 6.252C134.735 6.972 134.887 7.82 134.887 8.796C134.887 10.076 134.671 11.116 134.239 11.916C133.807 12.7 133.167 13.332 132.319 13.812L135.967 22.26H130.759L127.783 15.252L123.223 16.26V22.26H118.231V3.132ZM129.919 8.916C129.919 8.468 129.767 8.084 129.463 7.764C129.175 7.428 128.783 7.26 128.287 7.26H123.223V11.892L127.783 11.052C128.599 10.908 129.159 10.644 129.463 10.26C129.767 9.876 129.919 9.428 129.919 8.916ZM136.929 22.26L143.409 3.132H149.697L156.177 22.26H151.185L149.361 16.908L143.169 18.612L141.921 22.26H136.929ZM144.705 14.076L148.065 13.14L146.553 8.652L144.705 14.076Z" fill="white"/>
<g clip-path="url(#clip0_414_2643)">
<path d="M1.69831 7.82502L9.93384 0.558378C9.97164 0.525023 10.0284 0.525023 10.0662 0.558378L18.3017 7.82502C18.3708 7.88597 18.3277 8 18.2355 8H1.76448C1.67235 8 1.62923 7.88597 1.69831 7.82502Z" fill="white" stroke="white"/>
<path d="M21.9716 7.97498L13.6983 0.674984C13.6292 0.614027 13.6723 0.5 13.7645 0.5H31.9586C31.9851 0.5 32.0105 0.510535 32.0293 0.529289L39.3293 7.82929C39.3923 7.89229 39.3477 8 39.2586 8H22.0378C22.0134 8 21.9899 7.9911 21.9716 7.97498Z" fill="white" stroke="white"/>
<path d="M3 19.9V10.1C3 10.0448 3.04477 10 3.1 10H4.9C4.95523 10 5 10.0448 5 10.1V19.9C5 19.9552 4.95523 20 4.9 20H3.1C3.04477 20 3 19.9552 3 19.9Z" fill="white" stroke="white"/>
<path d="M1 23.9V22.1C1 22.0448 1.04477 22 1.1 22H39.9C39.9552 22 40 22.0448 40 22.1V23.9C40 23.9552 39.9552 24 39.9 24H1.1C1.04477 24 1 23.9552 1 23.9Z" fill="white" stroke="white"/>
<path d="M15 19.9V10.1C15 10.0448 15.0448 10 15.1 10H16.9C16.9552 10 17 10.0448 17 10.1V19.9C17 19.9552 16.9552 20 16.9 20H15.1C15.0448 20 15 19.9552 15 19.9Z" fill="white" stroke="white"/>
<path d="M23.5 19.9V10.1C23.5 10.0448 23.5448 10 23.6 10H25.4C25.4552 10 25.5 10.0448 25.5 10.1V19.9C25.5 19.9552 25.4552 20 25.4 20H23.6C23.5448 20 23.5 19.9552 23.5 19.9Z" fill="white" stroke="white"/>
<path d="M28 19.9V10.1C28 10.0448 28.0448 10 28.1 10H29.9C29.9552 10 30 10.0448 30 10.1V19.9C30 19.9552 29.9552 20 29.9 20H28.1C28.0448 20 28 19.9552 28 19.9Z" fill="white" stroke="white"/>
<path d="M32.5 19.9V10.1C32.5 10.0448 32.5448 10 32.6 10H34.4C34.4552 10 34.5 10.0448 34.5 10.1V19.9C34.5 19.9552 34.4552 20 34.4 20H32.6C32.5448 20 32.5 19.9552 32.5 19.9Z" fill="white" stroke="white"/>
<path d="M37 19.9V10.1C37 10.0448 37.0448 10 37.1 10H38.9C38.9552 10 39 10.0448 39 10.1V19.9C39 19.9552 38.9552 20 38.9 20H37.1C37.0448 20 37 19.9552 37 19.9Z" fill="white" stroke="white"/>
</g>
<defs>
<clipPath id="clip0_414_2643">
<rect width="41" height="24.5" fill="white"/>
</clipPath>
</defs>
</svg>

