<svg width="22" height="22" viewBox="0 0 22 22" fill="none" xmlns="http://www.w3.org/2000/svg">
<path d="M8.25 7.74085V14.2592C8.24998 14.3317 8.27027 14.4028 8.30877 14.4654C8.34727 14.5279 8.40259 14.5795 8.46903 14.6149C8.53546 14.6503 8.6106 14.6681 8.6867 14.6666C8.76279 14.6651 8.83709 14.6443 8.90191 14.6063L14.4629 11.3471C14.5251 11.3107 14.5766 11.2596 14.6123 11.1989C14.6479 11.1381 14.6667 11.0696 14.6667 11C14.6667 10.9304 14.6479 10.8619 14.6123 10.8012C14.5766 10.7404 14.5251 10.6894 14.4629 10.6529L8.90191 7.39375C8.83709 7.35577 8.76279 7.33495 8.6867 7.33343C8.6106 7.33192 8.53546 7.34977 8.46903 7.38514C8.40259 7.42051 8.34727 7.47213 8.30877 7.53466C8.27027 7.59718 8.24998 7.66837 8.25 7.74085Z" fill="black"/>
<path d="M11 2.75C17.6 2.75 19.25 4.4 19.25 11C19.25 17.6 17.6 19.25 11 19.25C4.4 19.25 2.75 17.6 2.75 11C2.75 4.4 4.4 2.75 11 2.75Z" stroke="black" stroke-width="1.5" stroke-linecap="round" stroke-linejoin="round"/>
</svg>
