<svg width="24" height="24" viewBox="0 0 24 24" fill="none" xmlns="http://www.w3.org/2000/svg">
<path d="M15 7V6C15 5.20435 14.6839 4.44129 14.1213 3.87868C13.5587 3.31607 12.7956 3 12 3C11.2044 3 10.4413 3.31607 9.87868 3.87868C9.31607 4.44129 9 5.20435 9 6V7M8 8H6.33129C6.04293 7.99997 5.75796 8.06229 5.49594 8.1827C5.23391 8.30311 5.00102 8.47876 4.81324 8.6976C4.62545 8.91645 4.48722 9.17331 4.408 9.45059C4.32878 9.72786 4.31046 10.019 4.35429 10.304L5.60929 18.456C5.71822 19.1643 6.07707 19.8102 6.62092 20.2768C7.16477 20.7434 7.85769 21 8.57429 21H15.4263C16.1431 21.0002 16.8362 20.7438 17.3803 20.2771C17.9243 19.8105 18.2833 19.1644 18.3923 18.456L19.6473 10.304C19.6911 10.019 19.6728 9.72786 19.5936 9.45059C19.5144 9.17331 19.3761 8.91645 19.1883 8.6976C19.0006 8.47876 18.7677 8.30311 18.5057 8.1827C18.2436 8.06229 17.9587 7.99997 17.6703 8H16M10 8H14" stroke="black" stroke-linecap="square" stroke-linejoin="round"/>
<path d="M4.7998 10C4.7998 9.29297 5 8.5 6 8.5C7 8.5 8.5 8.5 8.5 8.5V11C8.5 11 8.5 11.5 9 11.5C9.5 11.5 9.5 11 9.5 11L9.5 8.5H14.5V11C14.5 11 14.5 11.5 15 11.5C15.5 11.5 15.5 11 15.5 11V8.5C15.5 8.5 17 8.5 18 8.5C19 8.5 19.1998 9.17578 19.1998 10C19.1998 10.6235 18 18 18 18C18.0031 18.7692 17.1829 19.943 16.9998 20C16.4638 20.3172 16.1392 20.4331 15.5 20.5H8.5C7.81645 20.4259 7.49831 20.2971 6.9998 20C6.9216 20.0014 6.15861 19.178 6 18C6 18 4.7998 10.4965 4.7998 10Z" fill="black"/>
</svg>
