<svg width="24" height="24" viewBox="0 0 24 24" fill="none" xmlns="http://www.w3.org/2000/svg">
<path fill-rule="evenodd" clip-rule="evenodd" d="M19.4995 4.50001C13.7957 3.36807 10.5396 3.29393 4.4995 4.50001C2.44631 10.6128 2.73686 14.0566 5.19973 19.5C5.73624 17.8021 6.03975 16.9115 7.4997 16C8.51076 15.2341 9.69986 15.1989 11.9997 15.25C14.2768 15.1841 15.4494 15.2209 16.4997 16C17.5984 16.6436 18.3737 17.5934 18.8 19.5C21.1928 14.1274 21.5027 10.5922 19.4995 4.50001ZM15 7L16 10L15 13L12 14L9 13L8 10L9 7L11.9997 6L15 7Z" fill="white"/>
<path d="M21 12C21 4.8 19.2 3 12 3C4.8 3 3 4.8 3 12C3 19.2 4.8 21 12 21C19.2 21 21 19.2 21 12Z" stroke="white" stroke-width="1.5" stroke-linecap="round" stroke-linejoin="round"/>
<circle cx="12" cy="10" r="4.1" stroke="white" stroke-width="0.8"/>
<circle cx="12" cy="10" r="2.15" fill="white" stroke="white" stroke-width="0.3"/>
<path d="M7.9998 17.45C8.67551 16.9724 9.10225 16.8 9.9998 16.75H13.9998C14.8953 16.8085 15.3545 16.9711 15.9998 17.45C16.7535 18.0893 17.0002 18.5806 17.25 19.6C15.7256 20.0741 14.538 20.963 12 21C9.51281 20.9629 8.31512 20.0971 6.75 19.6C6.99148 18.6647 7.16638 18.1557 7.9998 17.45Z" fill="white"/>
</svg>
