<svg width="24" height="24" viewBox="0 0 24 24" fill="none" xmlns="http://www.w3.org/2000/svg">
<circle cx="12" cy="10" r="2.5" fill="black"/>
<path d="M10 16.5H14C14.8851 16.4727 15.6741 16.8133 16.4046 17.4704C17.0519 18.0443 17.3598 18.7865 17.5 19.75C16.0178 20.7095 14.8337 20.8604 12 20.5C9.6267 20.7208 8.34557 20.7316 6.5 19.75C6.64154 18.7913 6.95762 18.0697 7.57104 17.5C8.2421 16.8503 9.04059 16.506 10 16.5Z" fill="black"/>
<path fill-rule="evenodd" clip-rule="evenodd" d="M5.0004 4.49999C10.936 2.38889 13.9777 2.5193 19.0004 4.49999C21.4492 10.4409 21.4745 13.726 19.0004 19.5C18.8314 19.5568 18.6647 19.6119 18.5 19.6652L18.45 19.2C18.1505 18.0342 17.7152 17.209 16.9129 16.586C16.0607 15.8745 15.1 15.5112 14 15.5H9.5C8.31816 15.6944 7.51945 16.0972 6.90476 16.7246C6.17188 17.3461 5.83747 18.1171 5.55 19.2L5.55027 19.6652C5.36972 19.612 5.18648 19.557 5.0004 19.5C2.22759 13.1021 2.21486 9.81541 5.0004 4.49999ZM8.5 10C8.5 8 10.0781 6.5 12 6.5C13.9219 6.5 15.5 8 15.5 10C15.5 12 14 13.5 12 13.5C10 13.5 8.5 12 8.5 10Z" fill="black"/>
<path d="M21 12C21 4.8 19.2 3 12 3C4.8 3 3 4.8 3 12C3 19.2 4.8 21 12 21C19.2 21 21 19.2 21 12Z" stroke="black" stroke-linecap="round" stroke-linejoin="round"/>
</svg>
