<svg width="88" height="18" viewBox="0 0 88 18" fill="none" xmlns="http://www.w3.org/2000/svg">
<path d="M0.523047 17.3L5.92305 1.36H11.163L16.563 17.3H12.403L10.883 12.84L5.72305 14.26L4.68305 17.3H0.523047ZM7.00305 10.48L9.80305 9.7L8.54305 5.96L7.00305 10.48ZM25.9535 14.26C27.0202 14.26 27.8935 14.0133 28.5735 13.52C29.2535 13.0267 29.6602 12.3267 29.7935 11.42H25.5735V7.98H33.9735V10.2C33.9735 11.4267 33.7602 12.5067 33.3335 13.44C32.9202 14.3733 32.3468 15.1533 31.6135 15.78C30.8935 16.4067 30.0468 16.88 29.0735 17.2C28.1002 17.5333 27.0668 17.7 25.9735 17.7C24.7602 17.7 23.6268 17.4933 22.5735 17.08C21.5335 16.6667 20.6268 16.0867 19.8535 15.34C19.0802 14.6067 18.4668 13.7267 18.0135 12.7C17.5735 11.6733 17.3535 10.5467 17.3535 9.32C17.3535 8.09333 17.5735 6.96667 18.0135 5.94C18.4668 4.91333 19.0802 4.03333 19.8535 3.3C20.6402 2.55333 21.5668 1.97333 22.6335 1.56C23.7002 1.14667 24.8468 0.94 26.0735 0.94C27.7268 0.94 29.1535 1.28 30.3535 1.96C31.5535 2.62667 32.6335 3.62 33.5935 4.94L30.8535 7.24C30.3602 6.36 29.7068 5.66 28.8935 5.14C28.0935 4.62 27.1335 4.36 26.0135 4.36C25.4135 4.36 24.8402 4.48 24.2935 4.72C23.7468 4.96 23.2668 5.3 22.8535 5.74C22.4535 6.16667 22.1268 6.68667 21.8735 7.3C21.6335 7.9 21.5135 8.57333 21.5135 9.32C21.5135 10.0667 21.6268 10.7467 21.8535 11.36C22.0802 11.96 22.3935 12.48 22.7935 12.92C23.1935 13.3467 23.6602 13.68 24.1935 13.92C24.7402 14.1467 25.3268 14.26 25.9535 14.26ZM35.9668 9.3C35.9668 8.08667 36.1868 6.96667 36.6268 5.94C37.0801 4.91333 37.6935 4.03333 38.4668 3.3C39.2535 2.55333 40.1801 1.97333 41.2468 1.56C42.3135 1.14667 43.4735 0.94 44.7268 0.94C45.9935 0.94 47.1601 1.14667 48.2268 1.56C49.2935 1.97333 50.2135 2.55333 50.9868 3.3C51.7735 4.03333 52.3801 4.91333 52.8068 5.94C53.2468 6.96667 53.4668 8.08667 53.4668 9.3C53.4668 10.5267 53.2468 11.6533 52.8068 12.68C52.3801 13.7067 51.7735 14.5933 50.9868 15.34C50.2135 16.0867 49.2935 16.6667 48.2268 17.08C47.1601 17.4933 45.9935 17.7 44.7268 17.7C43.4735 17.7 42.3135 17.4933 41.2468 17.08C40.1801 16.6667 39.2535 16.0867 38.4668 15.34C37.6935 14.5933 37.0801 13.7067 36.6268 12.68C36.1868 11.6533 35.9668 10.5267 35.9668 9.3ZM40.1268 9.3C40.1268 10.0333 40.2335 10.7067 40.4468 11.32C40.6735 11.92 40.9868 12.44 41.3868 12.88C41.7868 13.32 42.2668 13.6667 42.8268 13.92C43.4001 14.16 44.0335 14.28 44.7268 14.28C45.4201 14.28 46.0468 14.16 46.6068 13.92C47.1801 13.6667 47.6668 13.32 48.0668 12.88C48.4668 12.44 48.7735 11.92 48.9868 11.32C49.2135 10.7067 49.3268 10.0333 49.3268 9.3C49.3268 8.59333 49.2135 7.94 48.9868 7.34C48.7735 6.74 48.4668 6.22 48.0668 5.78C47.6668 5.34 47.1801 5 46.6068 4.76C46.0468 4.50667 45.4201 4.38 44.7268 4.38C44.0335 4.38 43.4001 4.50667 42.8268 4.76C42.2668 5 41.7868 5.34 41.3868 5.78C40.9868 6.22 40.6735 6.74 40.4468 7.34C40.2335 7.94 40.1268 8.59333 40.1268 9.3ZM55.859 1.36H64.799C65.4923 1.36 66.139 1.45333 66.739 1.64C67.3523 1.82667 67.879 2.11333 68.319 2.5C68.759 2.87333 69.1057 3.36 69.359 3.96C69.6123 4.56 69.739 5.26667 69.739 6.08C69.739 7.14667 69.559 8.01333 69.199 8.68C68.839 9.33333 68.3057 9.86 67.599 10.26L70.639 17.3H66.299L63.819 11.46L60.019 12.3V17.3H55.859V1.36ZM65.599 6.18C65.599 5.80667 65.4723 5.48667 65.219 5.22C64.979 4.94 64.6523 4.8 64.239 4.8H60.019V8.66L63.819 7.96C64.499 7.84 64.9657 7.62 65.219 7.3C65.4723 6.98 65.599 6.60667 65.599 6.18ZM71.441 17.3L76.841 1.36H82.081L87.481 17.3H83.321L81.801 12.84L76.641 14.26L75.601 17.3H71.441ZM77.921 10.48L80.721 9.7L79.461 5.96L77.921 10.48Z" fill="#808080"/>
</svg>

